<svg xmlns="http://www.w3.org/2000/svg" fill="none" viewBox="0 0 30 30">
  <rect width="30" height="30" fill="#0054A5" rx="8"/>
  <path fill="#fff" fill-rule="evenodd" d="M8.338 14.188H6.694q0-.408-.095-.547-.146-.206-.81-.206-.644 0-.852.119-.208.12-.208.518 0 .36.185.475a.76.76 0 0 0 .35.095l.332.024q1.066.07 1.33.1.844.085 1.223.45.298.286.355.746.033.276.033.623 0 .798-.151 1.168-.274.68-1.234.86-.402.076-1.23.076-1.38 0-1.924-.166-.667-.203-.88-.825Q3 17.352 3 16.545h1.644v.137q0 .432.246.554a1 1 0 0 0 .41.09h.605q.462 0 .59-.048a.48.48 0 0 0 .298-.289q.038-.123.038-.318 0-.436-.317-.532-.117-.038-1.1-.104-.788-.056-1.094-.11-.807-.151-1.076-.626-.236-.402-.236-1.22 0-.621.128-.996t.41-.57q.417-.299 1.064-.35.54-.049 1.196-.049 1.035 0 1.475.12 1.073.29 1.073 1.626 0 .11-.016.328m8.935 1.217h1.102q.525-.02.638-.082.156-.087.21-.348.033-.173.033-.515 0-.42-.067-.622-.095-.284-.457-.347a4 4 0 0 0-.342-.01h-1.117zm-1.767 3.24v-6.61h3.292q.679 0 1.033.111.813.255 1.091 1.049.144.416.144 1.252 0 1.007-.159 1.446-.316.87-1.302 1-.115.021-.985.035l-.293.01h-1.054v1.706zm9.016-2.431-.828-2.865-.804 2.865zm.35 1.288H22.51l-.317 1.142h-1.829l1.973-6.61h2.666L27 18.645h-1.79l-.337-1.142z" clip-rule="evenodd"/>
  <path fill="#FEC10E" fill-rule="evenodd" d="M13.14 12.871c.729 0 1.38.338 1.807.867l.38-.822a3.33 3.33 0 0 0-2.3-.916 3.31 3.31 0 0 0-3.072 2.045h-.743l-.439.946h.956a3.3 3.3 0 0 0 .004.587h-.48l-.438.947h1.163a3.31 3.31 0 0 0 3.049 1.988 3.33 3.33 0 0 0 1.862-.564v-1.16a2.316 2.316 0 0 1-3.697-.264h2.435l.438-.947h-3.231a2.4 2.4 0 0 1-.014-.587h3.517l.439-.946h-3.652a2.33 2.33 0 0 1 2.016-1.174" clip-rule="evenodd"/>
</svg>
