<svg xmlns="http://www.w3.org/2000/svg" xmlns:xlink="http://www.w3.org/1999/xlink" fill="none" viewBox="0 0 48 48">
  <g clip-path="url(#a)">
    <path fill="#000" d="M6 19a1 1 0 1 0 0-2 1 1 0 0 0 0 2"/>
    <path fill="#307FE2" d="M20.728 22.422v4.728c0 .963-.726 1.728-1.652 1.728-.943 0-1.652-.756-1.652-1.753v-4.703c0-.656-.516-1.188-1.153-1.188H15.12v5.791c0 2.252 1.773 4.08 3.957 4.08s3.957-1.828 3.957-4.08v-5.791H21.88c-.636 0-1.152.532-1.152 1.188m-9.735-3.412v12.088h1.153c.636 0 1.152-.531 1.152-1.188V17.83h-1.152c-.637 0-1.153.532-1.153 1.18m-6.029 2.235c-1.007 0-1.942.407-2.667 1.088V17.83H1.152C.524 17.83 0 18.354 0 19.01v7.353c.073 2.633 2.103 4.744 4.594 4.744 2.538 0 4.601-2.11 4.601-4.886v-.116c0-2.683-1.893-4.86-4.23-4.86m-.41 7.635c-1.322 0-2.394-1.221-2.394-2.725s1.072-2.725 2.393-2.725c1.322 0 2.394 1.221 2.394 2.725S5.875 28.88 4.553 28.88"/>
    <path fill="#000" d="M32.382 20.671c-.67-.581-1.669-.872-2.974-.872h-3.16v10.776h1.959V26.76h1.209c.612 0 1.168-.083 1.66-.258a3.8 3.8 0 0 0 1.273-.73c.355-.316.62-.698.806-1.139.178-.432.274-.914.274-1.429-.008-1.08-.354-1.936-1.047-2.534m-4.167.873h1.2c.718 0 1.25.14 1.572.423.307.266.452.673.452 1.23 0 .54-.162.955-.5 1.28-.339.323-.854.49-1.523.49h-1.201zm8.865.98q-.872.002-1.588.316-.703.314-1.321.914l-.25.25.346.622a.78.78 0 0 0 .71.432c.185 0 .378-.074.564-.224a4 4 0 0 1 .354-.257 2.6 2.6 0 0 1 .451-.233q.242-.1.605-.1c.443 0 .629.166.725.291.178.224.266.582.266 1.064v.182c-.62.034-1.16.1-1.62.208-.58.133-1.064.307-1.434.523q-.604.351-.895.84a2 2 0 0 0-.306 1.055q0 .587.193 1.013c.13.283.307.532.524.723q.329.286.766.424c.274.083.556.124.854.124q.459.002.846-.083c.258-.058.508-.15.734-.266q.28-.15.548-.349l.008.034c.064.216.177.374.338.465a.9.9 0 0 0 .452.1h.87v-4.977c0-.889-.226-1.628-.685-2.193-.46-.598-1.16-.898-2.055-.898m-1 5.201c.387-.19 1.024-.324 1.878-.39v.964a3.5 3.5 0 0 1-.685.556q-.363.225-.943.225a.88.88 0 0 1-.588-.192c-.048-.033-.185-.14-.185-.548 0-.091 0-.357.524-.615m10.453-5.076a.8.8 0 0 0-.428.125.76.76 0 0 0-.306.374l-1.7 4.262-1.741-4.262a.9.9 0 0 0-.218-.316c-.129-.124-.314-.183-.532-.183h-1.53l3.021 7.12L41.666 33h1.426a.83.83 0 0 0 .548-.182c.08-.075.153-.166.226-.283l.016-.033L48 22.648z"/>
  </g>
  <defs>
    <clipPath id="a">
      <path fill="#fff" d="M0 16.5h48V33H0z"/>
    </clipPath>
  </defs>
</svg>
