<svg xmlns="http://www.w3.org/2000/svg" xmlns:xlink="http://www.w3.org/1999/xlink" viewBox="0 0 30 30">
  <defs>
    <linearGradient id="c" x1="0%" y1="100%" y2="0%">
      <stop offset="0%" stop-color="#060B0E"/>
      <stop offset="100%" stop-color="#254764"/>
    </linearGradient>
    <linearGradient id="d" x1="27.635%" x2="22.589%" y1="25.476%" y2="11.652%">
      <stop offset="0%" stop-color="#FFF" stop-opacity="0"/>
      <stop offset="100%" stop-color="#FFF"/>
    </linearGradient>
    <linearGradient id="e" x1="50.002%" x2="38.944%" y1="100%" y2="55.526%">
      <stop offset="0%" stop-color="#FFF" stop-opacity="0"/>
      <stop offset="100%" stop-color="#FFF"/>
    </linearGradient>
    <linearGradient id="f" x1="38.944%" x2="50.001%" y1="55.526%" y2="100%">
      <stop offset="0%" stop-color="#FFF" stop-opacity="0"/>
      <stop offset="100%" stop-color="#FFF"/>
    </linearGradient>
    <linearGradient id="g" x1="49.992%" x2="49.992%" y1="0%" y2="100%">
      <stop offset="0%" stop-color="#FAD961"/>
      <stop offset="100%" stop-color="#F7955D"/>
    </linearGradient>
    <path id="a" d="M22.5 0h-15A7.5 7.5 0 0 0 0 7.5v15A7.5 7.5 0 0 0 7.5 30h15a7.5 7.5 0 0 0 7.5-7.5v-15A7.5 7.5 0 0 0 22.5 0"/>
  </defs>
  <g fill="none" fill-rule="evenodd">
    <mask id="b" fill="#fff">
      <use xlink:href="#a"/>
    </mask>
    <g fill-rule="nonzero" mask="url(#b)">
      <path fill="url(#c)" d="M32.5 27h-15a7.5 7.5 0 0 0-7.5 7.5v15a7.5 7.5 0 0 0 7.5 7.5h15a7.5 7.5 0 0 0 7.5-7.5v-15a7.5 7.5 0 0 0-7.5-7.5" transform="translate(-10 -27)"/>
      <path fill="url(#d)" d="M45.156 94.5c16.31 0 29.532-13.222 29.532-29.531 0-16.31-13.222-29.532-29.532-29.532S15.625 48.659 15.625 64.969 28.847 94.5 45.156 94.5" opacity=".1" transform="translate(-10 -27)"/>
      <path fill="url(#e)" d="M16.094 72c8.543 0 15.468-6.926 15.468-15.469s-6.925-15.468-15.467-15.468S.625 47.988.625 56.53 7.551 72 16.094 72" opacity=".1" transform="translate(-10 -27)"/>
      <path fill="url(#f)" d="M49.844 50.438c13.72 0 24.843-11.123 24.843-24.844S63.565.75 49.844.75 25 11.873 25 25.594c0 13.72 11.123 24.843 24.844 24.843z" opacity=".1" transform="translate(-10 -27)"/>
      <path fill="#000" d="M9.375 13.125H4.687a.937.937 0 0 0-.937.938v2.812c0 .518.42.938.938.938h4.687c.518 0 .938-.42.938-.938v-2.813a.937.937 0 0 0-.938-.937"/>
      <path fill="url(#g)" d="M19.375 40.125h-4.688a.937.937 0 0 0-.937.938v2.812c0 .518.42.938.938.938h4.687c.518 0 .938-.42.938-.938v-2.813a.937.937 0 0 0-.938-.937" transform="translate(-10 -27)"/>
      <path fill="#7A3802" d="M5.625 14.063h-.938v2.812h.938v-2.813zm1.875 0h-.938v2.812H7.5v-2.813zm1.875 0h-.938v2.812h.938v-2.813z" opacity=".3"/>
      <path fill="#FFF" fill-opacity=".8" d="M8.438 20.625H3.75v.938h4.688zM6.563 22.5H3.75v.938h2.813zm3.75 0H7.5v.938h2.813zm3.75 0H11.25v.938h2.813zm0-1.875H9.375v.938h4.688zm5.625 0H15v.938h4.688zm5.625 0h-4.688v.938h4.688z"/>
    </g>
  </g>
</svg>
