<svg xmlns="http://www.w3.org/2000/svg" viewBox="0 0 102.473 108.85">
  <path fill="#3f4079" d="m102.418 48.483-.9-14.9a15.11 15.11 0 0 0-6.371-11.29l-7.872-5.495a113.6 113.6 0 0 0-18.889-10.67l-10.981-4.88A14.4 14.4 0 0 0 51.36.006a14.4 14.4 0 0 0-6.342 1.277L33.634 6.441a113.6 113.6 0 0 0-17.3 9.737l-8.918 6.1A15.12 15.12 0 0 0 .928 33.653L.041 48.475a428 428 0 0 0 0 11.884l.893 14.9a15.13 15.13 0 0 0 6.371 11.29l7.874 5.509a113.5 113.5 0 0 0 18.895 10.67l10.979 4.883a14.4 14.4 0 0 0 6.047 1.237 14.4 14.4 0 0 0 6.342-1.277l11.384-5.152a113.6 113.6 0 0 0 17.3-9.737l8.918-6.1a15.12 15.12 0 0 0 6.487-11.374l.889-14.618c.036-3.182.1-8.348-.002-12.107"/>
  <g fill="#fff">
    <path d="m51.755 18.448.033.518a.26.26 0 0 0 .219.253 2 2 0 0 0 .24.045 24 24 0 0 1 2.359.4 36 36 0 0 1 3.636.955 36.6 36.6 0 0 1 14.963 9.09 34 34 0 0 1 2.774 3.14c.318.408.314.4.812.253a9 9 0 0 1 1.71-.328 10.4 10.4 0 0 1 2.109.029 8.2 8.2 0 0 1 2.04.506 8.93 8.93 0 0 1 4.492 3.661 9.1 9.1 0 0 1 1.335 4.638 8.957 8.957 0 0 1-9.131 8.774 4 4 0 0 1-.537-.022 10 10 0 0 1-1.641-.251 8.96 8.96 0 0 1-6.409-5.938 8.4 8.4 0 0 1-.32-3.763 8.7 8.7 0 0 1 3.624-5.987c.076-.057.151-.112.223-.173.021-.014.027-.045.056-.1-.058-.086-.118-.188-.192-.28a34.47 34.47 0 0 0-17.482-11.512 35 35 0 0 0-3.2-.741c-.465-.086-.934-.149-1.4-.218-.178-.027-.263.033-.273.2-.012.241 0 .482-.012.722v.852a.18.18 0 0 1-.035.135.18.18 0 0 1-.122.069h-.05c-.513 0-1.034 0-1.54-.012-.025 0-.048-.022-.1-.049a3 3 0 0 1-.039-.288v-.922a3 3 0 0 0-.019-.32.19.19 0 0 0-.188-.176 1 1 0 0 0-.163 0l-1.784.067a8 8 0 0 0-.771.045c-.579.061-1.158.12-1.732.2s-1.149.18-1.722.28c-.827.143-1.641.339-2.45.559a32.7 32.7 0 0 0-15.457 9.339 31.7 31.7 0 0 0-4.91 7 31 31 0 0 0-1.96 4.693 30 30 0 0 0-.806 3.02q-.271 1.255-.44 2.524c-.087.649-.128 1.3-.182 1.957q-.043.517-.06 1.041c0 .245.052.3.3.32h3.891a1 1 0 0 1 .5.055.7.7 0 0 1 .054.175 10 10 0 0 1-.043 1.581 1 1 0 0 1-.207.049h-3.93a.73.73 0 0 0-.471.071.55.55 0 0 0-.045.353 15 15 0 0 0 .138 1.757c.058.355.085.716.13 1.073.087.69.223 1.371.364 2.051q.31 1.436.74 2.828a30.7 30.7 0 0 0 1.9 4.681 32.55 32.55 0 0 0 20.931 16.732c.891.229 1.79.424 2.687.575.786.133 1.579.222 2.373.308 1.108.116 2.216.127 3.326.149.207 0 .413 0 .61-.016s.244-.075.24-.255c0-.308-.021-.612-.043-.922-.083-1.161-.076-2.324-.074-3.485a2.31 2.31 0 0 1 .9-1.81 3.6 3.6 0 0 1 1.6-.733c.7-.155 1.4-.308 2.1-.451.529-.108 1.063-.2 1.594-.3.267-.049.531-.1.8-.141.4-.065.8-.141 1.2-.19a11 11 0 0 1 2.183-.143 3.7 3.7 0 0 1 .757.135 1.58 1.58 0 0 1 .874.622 22 22 0 0 1 1.28 1.9c.323.571.682 1.124 1.034 1.683a1 1 0 0 0 .12.161.23.23 0 0 0 .292.071 2 2 0 0 0 .248-.135c1.679-1.079 3.341-2.183 4.937-3.383a26.2 26.2 0 0 0 5.24-5.336c.329-.443.668-.875.99-1.322.258-.359.5-.73.742-1.1a1.25 1.25 0 0 0 .178-.847 1.94 1.94 0 0 0-.684-1.326 22 22 0 0 0-1.937-1.52 3.6 3.6 0 0 1-1.383-1.59 3.2 3.2 0 0 1-.124-2.04l.413-1.673.566-2.289q.285-1.126.566-2.255a5 5 0 0 1 .395-1.09 2.54 2.54 0 0 1 2.03-1.357 8.2 8.2 0 0 1 1.9-.025c.984.094 1.97.169 2.954.245.351.027.7.029 1.056.039a21 21 0 0 1 2.275.123 3 3 0 0 1 .825.228 1.83 1.83 0 0 1 1.05 1.2 2.54 2.54 0 0 1 .089 1.3c-.089.408-.11.816-.176 1.224-.107.671-.207 1.345-.349 2.012-.155.759-.339 1.512-.515 2.267a26 26 0 0 1-.8 2.689 35 35 0 0 1-3.835 7.939 37 37 0 0 1-3.376 4.409 39.5 39.5 0 0 1-6.408 5.785 36.6 36.6 0 0 1-6.408 3.752 46 46 0 0 1-4.066 1.61c-.947.32-1.912.577-2.894.816s-1.958.418-2.942.586c-.506.086-1.021.118-1.532.184a9 9 0 0 1-1.54.082 2.2 2.2 0 0 1-.827-.165 1.5 1.5 0 0 1-.657-.577 2.6 2.6 0 0 1-.356-.847c-.037-.155-.089-.3-.136-.463a2 2 0 0 0-.3-.035h-.934a30 30 0 0 1-3.243-.157 35 35 0 0 1-2.375-.3 35.2 35.2 0 0 1-7.8-2.153A35.67 35.67 0 0 1 18.573 70.49a33.8 33.8 0 0 1-3.746-9.611c-.246-1.1-.413-2.2-.579-3.314-.083-.6-.12-1.192-.159-1.8-.056-.894-.128-1.787-.1-2.683.033-1.081.091-2.163.207-3.24q.112-1.139.3-2.265c.151-.879.333-1.757.56-2.624s.469-1.7.748-2.536a34 34 0 0 1 1.985-4.693 35 35 0 0 1 5.315-7.631 36.2 36.2 0 0 1 15.869-10.031 28 28 0 0 1 3.1-.8c.544-.1 1.083-.241 1.631-.326.734-.114 1.472-.2 2.212-.284a39 39 0 0 1 1.982-.159c.757-.039 1.515-.053 2.274-.071h1.178c.123.001.236.015.405.026M85.79 42.093a6.459 6.459 0 0 0-10.264-5.728 7 7 0 0 0-.781.653 6.2 6.2 0 0 0-.058 8.841l.017.018a6.43 6.43 0 0 0 3.942 1.875 6.2 6.2 0 0 0 3.514-.612 6.07 6.07 0 0 0 3.63-5.047"/>
    <path d="M49.163 59.565c.012.171.029.288.029.408v3.008c0 .441-.012.447-.455.455h-14.3a1.3 1.3 0 0 1-.575-.053.8.8 0 0 1-.015-.5 10.7 10.7 0 0 1 1.633-4.026 18 18 0 0 1 1.759-2.151c1.141-1.224 2.369-2.347 3.593-3.483.75-.7 1.48-1.412 2.2-2.134a6.8 6.8 0 0 0 1.226-1.588 4.9 4.9 0 0 0 .569-1.787 3.45 3.45 0 0 0-.267-1.765 2.4 2.4 0 0 0-1.575-1.406 3.82 3.82 0 0 0-2.51.053 2.53 2.53 0 0 0-1.557 1.585 4 4 0 0 0-.269 1.21 2 2 0 0 1-.056.269 1 1 0 0 1-.176.024q-2-.184-4-.375c-.021 0-.041-.031-.089-.067a2 2 0 0 1 0-.333 10.3 10.3 0 0 1 .68-2.383 5.64 5.64 0 0 1 2.855-2.84 8.5 8.5 0 0 1 2.638-.745 11.6 11.6 0 0 1 1.7-.09 8.8 8.8 0 0 1 3.132.6 5.98 5.98 0 0 1 3.543 3.691 6.45 6.45 0 0 1 .265 2.887 8.84 8.84 0 0 1-1.716 4.144 14.4 14.4 0 0 1-1.978 2.228c-1.034.959-2.088 1.9-3.132 2.857a12 12 0 0 0-1.428 1.477q-.222.286-.413.59c-.074.112-.017.2.126.218a4 4 0 0 0 .413 0h7.6c.153.006.327.016.55.022m16.935-.74c-.176 0-.325.018-.471.018h-1.86a.75.75 0 0 0-.432.065.95.95 0 0 0-.056.473v3.528c0 .145-.012.29-.017.422a.63.63 0 0 1-.453.09h-3.384a2 2 0 0 1-.26-.029.4.4 0 0 1-.1-.353v-3.683c0-.145-.012-.288-.021-.445a1.5 1.5 0 0 0-.252-.059h-8.571a1.3 1.3 0 0 1-.54-.053 1.5 1.5 0 0 1-.05-.265v-3.246a.86.86 0 0 1 .207-.512q1.079-1.53 2.152-3.061l7.341-10.439c.337-.477.223-.424.827-.428h2.625a1 1 0 0 1 .453.053 2 2 0 0 1 .046.224v13.361c0 .147 0 .294.012.441a.164.164 0 0 0 .157.155c.107 0 .207.012.325.012h1.916a4 4 0 0 1 .413.014 1 1 0 0 1 .045.2v3.328a1 1 0 0 1-.052.189m-7.12-11.386c-.1.131-.163.2-.207.273l-3.163 4.583-1.654 2.383c-.072.1-.18.2-.178.333.037.031.058.061.079.061q2.48.012 4.961.016a.325.325 0 0 0 .256-.559v-6.86a1 1 0 0 0-.093-.222zm26.148-6.366a5.74 5.74 0 0 1-3.572 5.65 5.95 5.95 0 0 1-2.778.408 5.78 5.78 0 0 1-5-3.877 5.2 5.2 0 0 1-.269-2.33 5.63 5.63 0 0 1 3.326-4.613 5.3 5.3 0 0 1 2.836-.543 5.76 5.76 0 0 1 5.125 3.732 4.5 4.5 0 0 1 .332 1.573m-5.848-2.155a2.544 2.544 0 0 0-2.584 2.479 2.576 2.576 0 0 0 2.557 2.532 2.54 2.54 0 0 0 2.592-2.489 2.47 2.47 0 0 0-.718-1.767 2.53 2.53 0 0 0-1.775-.747z"/>
    <path d="M79.305 40.449a1.03 1.03 0 0 1 1.054.979 1.05 1.05 0 0 1-1.015 1.081h-.039a1.066 1.066 0 0 1-1.034-1.02 1.01 1.01 0 0 1 .972-1.041z"/>
  </g>
</svg>
