<svg xmlns="http://www.w3.org/2000/svg" data-name="Layer 45" viewBox="0 0 24 24">
  <path fill="#4c9ae8" d="m14.13 15.503-1.414-1.415 1.424-1.422a2.02 2.02 0 0 0 0-2.855L9.87 5.54a2.07 2.07 0 0 0-2.855 0L5.59 6.964a2.02 2.02 0 0 0 0 2.855l-1.414 1.414a4.02 4.02 0 0 1 0-5.683L5.6 4.127a4.02 4.02 0 0 1 5.683 0l4.27 4.27a4.024 4.024 0 0 1 0 5.683Z"/>
  <path fill="#4c9ae8" d="M15.558 20.95a4 4 0 0 1-2.842-1.178l-4.27-4.27a4.024 4.024 0 0 1 0-5.683L9.87 8.396l1.414 1.415-1.424 1.423a2.02 2.02 0 0 0 0 2.855l4.27 4.27a2.07 2.07 0 0 0 2.855 0l1.424-1.424a2.02 2.02 0 0 0 0-2.855l1.414-1.414a4.024 4.024 0 0 1 0 5.684L18.4 19.773a4 4 0 0 1-2.841 1.177"/>
</svg>
