<svg xmlns="http://www.w3.org/2000/svg" viewBox="0 0 225 225">
  <path fill="#6462F8" d="M177.72 106.71c-11.57 11.66-22.22 21.62-23.66 22.12-3.54 1.23-9.43-1.15-10.92-4.43-2.71-5.93-2.25-6.59 20.27-29.33 20.39-20.59 21.48-21.89 23.1-27.47 4.41-15.15-5.97-29.61-21.23-29.59-10.33.01-11.15.57-34.35 23.59C110.86 81.51 109.1 83 105.75 83c-5.26 0-9.75-4.05-9.75-8.79 0-3.37 1.48-5.09 22.15-25.84 18.71-18.77 23.07-22.64 28.02-24.87 21.98-9.86 45.51-1.82 55.8 19.09 5.59 11.35 5.31 25.77-.73 37.91-1.75 3.5-8.79 11.35-23.52 26.21m-104.65 96.7c-29.14 8.51-58.27-18.99-51.64-48.72.88-3.96 2.91-9.44 4.5-12.19 1.71-2.94 11.49-13.54 23.79-25.75C68.85 97.74 70.9 96 74.08 96c1.91 0 4.47.7 5.68 1.54 2.73 1.92 4.24 7.1 3.04 10.46-.49 1.38-10.08 11.72-21.31 23-13.07 13.12-20.97 21.84-21.95 24.22-1.84 4.45-2.01 13.6-.32 17.48 5.37 12.37 20.53 18.23 31.96 12.36 2.55-1.31 12.74-10.59 24.87-22.64C114.87 143.73 116.9 142 120.08 142c4.5 0 7.49 2.16 8.9 6.44.91 2.76.84 3.99-.35 6.25-2.27 4.31-40.53 41.7-45.63 44.59-2.47 1.4-6.94 3.26-9.93 4.13m46.25-84.25c-26.04 26.03-27.42 27.05-33.48 24.74-3.19-1.21-6.14-6.87-5.31-10.18.33-1.3 12.04-13.79 26.02-27.77 25-24.99 25.49-25.4 29.54-25.4 3.31 0 4.61.57 6.62 2.9 2.06 2.39 2.41 3.62 1.97 6.91-.49 3.64-2.7 6.15-25.36 28.8"/>
  <path fill="#FEFEFE" d="M0 112.5V0h225v225H0zm73.07 90.91c2.99-.87 7.46-2.73 9.93-4.13 5.1-2.89 43.36-40.28 45.63-44.59 1.19-2.26 1.26-3.49.35-6.25-1.41-4.28-4.4-6.44-8.9-6.44-3.18 0-5.21 1.73-24.03 20.42-12.13 12.05-22.32 21.33-24.87 22.64-11.43 5.87-26.59.01-31.96-12.36-1.69-3.88-1.52-13.03.32-17.48.98-2.38 8.88-11.1 21.95-24.22 11.23-11.28 20.82-21.62 21.31-23 1.2-3.36-.31-8.54-3.04-10.46-1.21-.84-3.77-1.54-5.68-1.54-3.18 0-5.23 1.74-24.36 20.75-12.3 12.21-22.08 22.81-23.79 25.75-1.59 2.75-3.62 8.23-4.5 12.19-6.63 29.73 22.5 57.23 51.64 48.72m46.25-84.25c22.66-22.65 24.87-25.16 25.36-28.8.44-3.29.09-4.52-1.97-6.91-2.01-2.33-3.31-2.9-6.62-2.9-4.05 0-4.54.41-29.54 25.4-13.98 13.98-25.69 26.47-26.02 27.77-.83 3.31 2.12 8.97 5.31 10.18 6.06 2.31 7.44 1.29 33.48-24.74m58.4-12.45C192.45 91.85 199.49 84 201.24 80.5c6.04-12.14 6.32-26.56.73-37.91-10.29-20.91-33.82-28.95-55.8-19.09-4.95 2.23-9.31 6.1-28.02 24.87C97.48 69.12 96 70.84 96 74.21c0 4.74 4.49 8.79 9.75 8.79 3.35 0 5.11-1.49 25.18-21.4 23.2-23.02 24.02-23.58 34.35-23.59 15.26-.02 25.64 14.44 21.23 29.59-1.62 5.58-2.71 6.88-23.1 27.47-22.52 22.74-22.98 23.4-20.27 29.33 1.49 3.28 7.38 5.66 10.92 4.43 1.44-.5 12.09-10.46 23.66-22.12"/>
</svg>
