<svg xmlns="http://www.w3.org/2000/svg" fill="none" viewBox="0 0 24 18">
  <path fill="#000" d="M20.903 0H3.097C1.387 0 0 1.402 0 3.13v11.74C0 16.599 1.386 18 3.097 18h17.806C22.613 18 24 16.599 24 14.87V3.13C24 1.402 22.613 0 20.903 0"/>
  <path fill="#E7001A" d="M9.75 12.75a3.75 3.75 0 1 0 0-7.5 3.75 3.75 0 0 0 0 7.5"/>
  <path fill="#F49B1C" d="M14.25 12.75a3.75 3.75 0 1 0 0-7.5 3.75 3.75 0 0 0 0 7.5"/>
  <path fill="#E7001A" fill-rule="evenodd" d="M12 6a3.74 3.74 0 0 0-1.5 3c0 1.227.59 2.316 1.5 3a3.74 3.74 0 0 0 1.5-3c0-1.227-.59-2.316-1.5-3" clip-rule="evenodd" opacity=".3"/>
</svg>
