<svg xmlns="http://www.w3.org/2000/svg" fill="none" viewBox="0 0 30 30">
  <rect width="30" height="30" fill="color(display-p3 0 .251 1)" rx="7.5"/>
  <path fill="#fff" fill-rule="evenodd" d="M7.453 10.729a1 1 0 0 0-.345.275.62.62 0 0 0 .092.805q.2.19.553.191h14.494q.36 0 .553-.19a.62.62 0 0 0 .2-.453.58.58 0 0 0-.115-.353.9.9 0 0 0-.33-.275L15.99 7.254A2.14 2.14 0 0 0 15 7q-.499 0-.984.254L7.453 10.73zm3.638-.229h7.825l-3.619-1.916A.64.64 0 0 0 15 8.5a.6.6 0 0 0-.284.081z" clip-rule="evenodd"/>
  <path fill="#fff" d="M9.75 13.5h1.5V20h-1.5z"/>
  <path fill="#fff" d="M9 14.1c0-.283 0-.424.088-.512s.23-.088.512-.088h1.8c.283 0 .424 0 .512.088s.088.23.088.512v.3c0 .283 0 .424-.088.512s-.23.088-.512.088H9.6c-.283 0-.424 0-.512-.088S9 14.682 9 14.4zm0 5c0-.283 0-.424.088-.512s.23-.088.512-.088h1.8c.283 0 .424 0 .512.088s.088.23.088.512v.3c0 .283 0 .424-.088.512s-.23.088-.512.088H9.6c-.283 0-.424 0-.512-.088S9 19.682 9 19.4zm5.25-5.6h1.5V20h-1.5z"/>
  <path fill="#fff" d="M13.5 14.1c0-.283 0-.424.088-.512s.23-.088.512-.088h1.8c.283 0 .424 0 .512.088s.088.23.088.512v.3c0 .283 0 .424-.088.512s-.23.088-.512.088h-1.8c-.283 0-.424 0-.512-.088s-.088-.23-.088-.512zm0 5c0-.283 0-.424.088-.512s.23-.088.512-.088h1.8c.283 0 .424 0 .512.088s.088.23.088.512v.3c0 .283 0 .424-.088.512s-.23.088-.512.088h-1.8c-.283 0-.424 0-.512-.088s-.088-.23-.088-.512zm5.25-5.6h1.5V20h-1.5z"/>
  <path fill="#fff" d="M18 14.1c0-.283 0-.424.088-.512s.23-.088.512-.088h1.8c.283 0 .424 0 .512.088s.088.23.088.512v.3c0 .283 0 .424-.088.512s-.23.088-.512.088h-1.8c-.283 0-.424 0-.512-.088S18 14.682 18 14.4zm0 5c0-.283 0-.424.088-.512s.23-.088.512-.088h1.8c.283 0 .424 0 .512.088s.088.23.088.512v.3c0 .283 0 .424-.088.512s-.23.088-.512.088h-1.8c-.283 0-.424 0-.512-.088S18 19.682 18 19.4zM7 22.25a.75.75 0 0 1 .75-.75h14.5a.75.75 0 0 1 0 1.5H7.75a.75.75 0 0 1-.75-.75"/>
</svg>
