<svg xmlns="http://www.w3.org/2000/svg" fill="none" viewBox="0 0 32 32">
  <path fill="#0B70B8" fill-rule="evenodd" d="M6.435 20.343H5.207l-.562-1.057h1.79c.817 0 1.48.662 1.48 1.48v1.518H6.858v-1.518a.423.423 0 0 0-.423-.423m5.383-.153a.91.91 0 0 1 .91-.913h2.141l-.282.528H12.73a.383.383 0 1 0 0 .766h1.677a.866.866 0 1 1 0 1.732h-2.48v-.528h2.48a.338.338 0 0 0 0-.676H12.73a.91.91 0 0 1-.911-.91m3.86.548c0-.116.094-.211.211-.211h3.282l-.28.528h-2.684l.002.72h2.962v.53h-3.21l-.282-.53zm4.032-1.449h2.544a.996.996 0 0 1 0 1.991h-2.01v1.047l-.529-.28v-1.093c0-.112.09-.202.203-.202h2.336a.467.467 0 0 0 0-.935h-2.544zm-4.016-.011h3.477l-.286.528h-3.19z" clip-rule="evenodd"/>
  <path fill="#0B70B8" d="M.387 14.693v1.47c0 1.167.947 2.114 2.115 2.114h7.685c.631 0 1.198-.277 1.585-.716a2.1 2.1 0 0 0 1.586.716h9.853V17.22h-9.853a1.057 1.057 0 0 1-1.057-1.031v-2.036l-1.057.545v1.491a1.057 1.057 0 0 1-1.057 1.03H2.502a1.057 1.057 0 0 1-1.057-1.056v-2.01zM21.885 9.87a.33.33 0 0 1 .312-.196l2.83.085c.36.01.645.304.645.663l.003 5.16-4.63-2.276a.664.664 0 0 1-.313-.868z"/>
  <path fill="#7FCBE7" d="M30.388 18.045a.33.33 0 0 1-.314.194l-2.83-.098a.664.664 0 0 1-.641-.666l.021-5.16 4.62 2.298c.32.159.457.543.309.869z"/>
</svg>
