<svg xmlns="http://www.w3.org/2000/svg" viewBox="0 0 512 512">
  <path fill="#3D99E1" d="M420.39 477.19c-3.26 1.93-5.44 2.24-17.8 2.52-12.59.28-15.1.04-23.59-2.25-16.22-4.37-27.89-11.05-36.95-21.11-7.64-8.5-16.05-23.1-16.05-27.87 0-1.42-.76-4.02-1.69-5.78s-1.79-5.22-1.91-7.7c-.11-2.48-.66-6.75-1.2-9.5-.93-4.66-.46-11.89 1.38-21.5.37-1.92.32-3.17-.11-2.76s-1.28.33-1.88-.17-3.57-1.88-6.59-3.07c-3.03-1.19-12.48-5.1-21-8.7-35.95-15.17-48.12-20.29-59-24.83-6.32-2.64-14.69-6.3-18.59-8.14-3.89-1.83-7.81-3.33-8.69-3.33-.89 0-2.83-1.12-4.31-2.5-1.49-1.38-3.2-2.5-3.81-2.5-3.34 0-8.2 2.4-14.75 7.28-9.56 7.12-22.06 12.35-31.63 13.25-4.4.41-7.89 1.28-8.81 2.21-2.27 2.27-30.04 1.17-40.55-1.6-21.32-5.63-41.16-18.25-47.39-30.14-1.3-2.48-3.89-5.96-5.77-7.75-4.35-4.14-11.35-18.55-13.73-28.25-4.17-16.98-4.17-37.02 0-54 2.38-9.7 9.38-24.11 13.73-28.25 1.88-1.79 4.47-5.27 5.77-7.75 5.95-11.38 28.97-25.69 48.03-29.86 10.16-2.22 29.64-3.41 35.5-2.16 3.02.64 9.17 1.77 13.65 2.52 5.25.87 11.23 2.8 16.81 5.42 4.76 2.25 8.91 4.08 9.22 4.08.3 0 3.43 2.26 6.95 5.03 4.55 3.57 6.85 5.54 9.44 6.07 2.99.6 6.38-.74 14.09-3.78.62-.24 1.28-.5 1.96-.77 7.91-3.11 18.08-7.21 22.6-9.12 4.51-1.91 9.69-3.74 11.5-4.09 1.8-.34 3.96-1.14 4.78-1.79s3.3-1.89 5.5-2.77 17.5-6.93 34-13.44l30-11.84.59-11.5c1.16-22.7 7.77-38.92 21.75-53.34 17.6-18.14 40.94-25.8 69.12-22.67 5.75.63 11.99 1.8 13.87 2.58 1.88.79 4.21 1.43 5.19 1.43 2.14 0 10.96 4.55 18.47 9.54 5.74 3.81 17.43 16.1 18.81 19.77.44 1.17 1.16 2.37 1.61 2.66 1.49.97 5.09 10.25 5.09 13.11 0 3.07 1.87 7.92 3.06 7.92 2.72 0 4.05 30.03 1.44 32.64-1.61 1.61-2.06 5.36-.64 5.36 1.43 0-.02 5.16-2 7.14-1.23 1.23-1.8 3.13-1.69 5.73.09 2.4-.64 5.17-1.92 7.25-1.14 1.86-3.23 5.57-4.64 8.24-6.13 11.59-23.52 26.29-35.47 29.99-2.55.78-7.34 2.27-10.64 3.29-4.76 1.48-9.21 1.86-21.5 1.86-15.67 0-18.07-.39-31.5-5.08-12.4-4.33-27.57-17.25-35.48-30.19l-3.22-5.27-5.15.61c-2.83.34-6.27 1.47-7.65 2.52C311.84 174 276.99 188 272.41 188c-2.08 0-3.78.69-4.6 1.86-.72 1.02-4.23 2.87-7.81 4.11s-7.85 2.84-9.5 3.57c-17.81 7.81-28.02 11.49-31.3 11.27-2.03-.14-3.68.34-4.25 1.23-1.18 1.87-1.21 3.96-.06 3.96 1.2 0 7.07 18.57 7.28 23 .09 1.93-.16 4.23-.56 5.12-.44.98-.1 2.24.83 3.18 4.06 4.06.35 36.41-5.47 47.7-3.47 6.72-2.93 11 1.39 11 1.31 0 8.4 2.95 18.14 7.56 1.65.78 7.05 2.96 12 4.86 7.83 2.99 19.31 7.92 34.2 14.68 2.3 1.04 4.66 1.9 5.23 1.9s4.75 1.74 9.3 3.87 11.42 5.08 15.27 6.55 9.25 3.73 12 5.03c.37.17.72.34 1.06.5 3.3 1.56 5.18 2.45 6.95 2.26 2.51-.26 4.8-2.69 10.63-8.44 16.6-16.34 31.84-22.21 57.36-22.1 21.01.1 32.04 3.28 47.91 13.82 5.33 3.53 18.59 17.33 18.59 19.34 0 .56.61 1.64 1.36 2.39 2.14 2.13 5.64 10.74 5.64 13.86 0 3.07 1.87 7.92 3.06 7.92 2.72 0 4.05 30.03 1.44 32.64-1.61 1.61-2.06 5.36-.64 5.36 1.43 0-.02 5.16-2 7.14-1.24 1.24-1.8 3.13-1.69 5.73.1 2.77-.73 5.31-2.88 8.82-1.67 2.7-3.34 5.88-3.71 7.06-.38 1.18-2.01 3.57-3.63 5.31-1.62 1.73-4.07 4.48-5.43 6.1-7.74 9.2-23.4 18.84-30.6 18.84-2.12 0-5.45.97-7.53 2.19M109.5 317.49c5.02 1.94 7.96 2.34 18 2.41 12.4.08 16.3-.65 26.59-4.99 7.17-3.02 12.23-6.52 19.01-13.15 8.73-8.52 13.55-16.71 17.48-29.67 1.85-6.09 1.85-26.09 0-32.18-6.41-21.15-19.34-35.82-37.84-42.95-16.58-6.4-32.62-6.19-50.24.66-9.55 3.7-10.43 4.31-19.53 13.38-9.17 9.14-9.68 9.88-13.36 19.5-7.1 18.56-7.21 31.78-.43 49.69 3.59 9.47 4.83 11.54 10.95 18.17 7.44 8.08 14.3 13.43 19.87 15.5 1.93.71 6.2 2.35 9.5 3.63m279.48 129.47c1.94.46 6.96.88 11.16.94 20.34.27 37.72-11.51 45.07-30.54 1.88-4.86 2.27-7.83 2.28-17.36.01-10.25-.3-12.28-2.8-18.67-6.68-17.07-25.01-29.33-43.85-29.33-26.79 0-48.84 21.67-48.84 48 0 21.84 15.82 41.94 36.98 46.96m1.52-271.56c1.1.27 6.5.33 12 .14 14.59-.5 21.55-3.48 31.57-13.49 6.36-6.36 8.04-8.77 10.5-15.06 2.64-6.74 2.93-8.65 2.93-18.99 0-9.58-.38-12.48-2.28-17.36-8.24-21.2-29.22-33.23-52.15-29.89-10.79 1.57-18.23 5.32-26.19 13.21-8.35 8.29-12.57 16.37-14.13 27.1-3.68 25.26 12.18 48.08 37.75 54.34"/>
  <path fill="#599FD7" d="M328.08 435.13c-6.56-13.11-8.69-26.03-7.25-42.63.61-7.01.54-10.35-.23-11.18-.44-.48-2.14-1.4-4.2-2.33 2.06.89 3.75 1.72 4.19 2.08.6.5 1.45.58 1.88.17s.48.84.11 2.76c-1.84 9.61-2.31 16.84-1.38 21.5.54 2.75 1.09 7.02 1.2 9.5.12 2.48.98 5.94 1.91 7.7s1.69 4.36 1.69 5.78c0 1.46.78 3.82 2.08 6.65M41.19 214.7c3.12-7.06 6.92-14.21 9.88-18.2 3.18-4.27 7.13-8.41 11.6-12.26-3.23 2.97-5.73 5.95-7.2 8.76-1.3 2.48-3.89 5.96-5.77 7.75-2.43 2.31-5.69 7.83-8.51 13.95m19.15 111.03c-3.59-3.42-6.82-6.95-9.26-10.23-2.97-3.99-6.77-11.14-9.89-18.2 2.82 6.12 6.08 11.64 8.51 13.95 1.88 1.79 4.47 5.27 5.77 7.75 1.17 2.23 2.82 4.49 4.87 6.73m160.14-96.59c-1.89-6.83-4.79-15.14-5.59-15.14-1.15 0-1.12-2.09.06-3.96.57-.89 2.22-1.37 4.25-1.23 1.71.11 5.3-.83 10.86-2.86-.51.2-1.03.4-1.56.61-6.6 2.61-12.32 5.01-12.71 5.35s.64 4.54 2.29 9.34c.9 2.59 1.7 5.23 2.4 7.89m-52.02 114.92c-5.04 2.3-10.34 4.25-15.46 5.66-2.44.67-6.16 1.16-10.52 1.47.44-.13.76-.28.93-.45.92-.93 4.41-1.8 8.81-2.21 4.91-.46 10.58-2.06 16.24-4.47m133.73-166.74c6.97-2.98 12.91-5.79 14.81-7.23 1.38-1.05 4.82-2.18 7.65-2.52l1.41-.17c-.2.13-.41.29-.61.48-.52.48-4.55 2.22-8.95 3.87-2.36.88-7.72 2.97-14.31 5.57m-167.51-16.79c2.68.05 5.2.18 7.45.39 9.98.95 14.67 2.19 25.63 7.23-5.08-2.23-10.39-3.87-15.11-4.65-4.48-.75-10.63-1.88-13.65-2.52-1.05-.23-2.53-.37-4.32-.45m343.11-53.78c-.23-.48-.48-.75-.73-.75-1.19 0-3.06-4.85-3.06-7.92 0-1.51-1.01-4.83-2.18-7.75 2.05 4.6 4.54 11.11 5.65 15.17.11.4.22.81.32 1.25m0 272c-.23-.48-.48-.75-.73-.75-1.19 0-3.06-4.85-3.06-7.92 0-1.56-.87-4.48-2.01-7.29 2.06 4.57 4.33 10.5 5.48 14.71.11.4.22.81.32 1.25m-57.4 98.44c2.08-1.22 5.41-2.19 7.53-2.19 5.69 0 16.66-6.02 24.83-13.08-7.71 7.04-17.25 12.04-29.13 15.3-1.7.46-3.61.86-5.78 1.19.91-.31 1.7-.71 2.55-1.22M261.61 193.37c2.97-1.18 5.59-2.65 6.2-3.51.82-1.17 2.52-1.86 4.6-1.86 1.47 0 6.04-1.44 11.75-3.52l-.66.27c-8.63 3.45-16.72 6.63-21.89 8.62M204 331.77c-3.57-1.2-7.02-2.23-8.5-2.45a5.3 5.3 0 0 0-2.27.11c2.1-.96 3.88-1.43 5.37-1.43.61 0 2.32 1.12 3.81 2.5.49.46 1.05.9 1.59 1.27m269.53 101.37c.5-1.47.69-2.84.64-4.27-.11-2.6.45-4.49 1.69-5.73.75-.75 1.42-1.96 1.89-3.16-1.12 4.67-2.62 9.33-4.22 13.16m.14-272.34c.37-1.31.55-2.67.5-3.93-.11-2.6.46-4.5 1.69-5.73.75-.75 1.42-1.96 1.89-3.16-1.09 4.54-2.53 9.06-4.08 12.82m4.76-15.87c-.01-.57-.19-.93-.57-.93-1.42 0-.97-3.75.64-5.36.7-.7 1.12-3.41 1.3-6.98-.07 3.75-.31 7.2-.75 9.9-.17 1.11-.38 2.24-.62 3.37m0 272c-.01-.57-.19-.93-.57-.93-1.42 0-.97-3.75.64-5.36.7-.7 1.12-3.41 1.3-6.98-.07 3.75-.31 7.2-.75 9.9-.17 1.11-.38 2.24-.62 3.37m-219.79-256.4c-1.58.63-2.66 1.06-3.14 1.25-2.2.88-4.68 2.12-5.5 2.77s-2.98 1.45-4.78 1.79c-1.18.23-3.79 1.09-6.72 2.19 3.08-1.31 5.08-2.21 5.9-2.67 1.58-.89 7.38-3.05 14.24-5.33m-34.82 88.67c-.28-1.88-.73-3.25-1.38-3.9-.93-.94-1.27-2.2-.83-3.18.4-.89.65-3.19.56-5.12-.01-.25-.04-.55-.09-.89.87 4.43 1.46 8.84 1.74 13.09m104.46-82.06 1.52-.18 3.19 5.22c-1.78-2.9-3.31-4.56-4.71-5.04M223.32 267.22c-1.09 10.35-3.42 20.1-6.35 25.78 2.83-5.5 5.17-15.99 6.35-25.78M89.18 344.51c-4.3-1.72-8.29-3.57-11.18-5.24a72 72 0 0 1-4.6-2.92c4.75 3.03 10.1 5.8 15.78 8.16M379 477.46c-9.48-2.56-15.68-5.01-21.91-8.86 6.25 3.68 13.47 6.58 21.91 8.86m62.76-279.66c4.34-2.64 8.81-6.04 12.88-9.75-.48.47-.96.93-1.45 1.39-3.01 2.83-7.24 5.88-11.43 8.36M116.08 351.16c-4.45-.32-8.35-.82-11.08-1.48-.56-.14-1.14-.28-1.73-.44 3.2.8 7.82 1.45 12.81 1.92M463.7 178.33c1.56-2.03 2.89-4.04 3.91-5.97.19-.35.39-.73.6-1.12a38 38 0 0 0-.93 1.91c-.5 1.17-1.79 2.99-3.58 5.18m-5.3 277.97c.04-.05.08-.1.12-.14 1.29-1.54 3.56-4.09 5.18-5.83-1.48 1.8-3.3 3.85-5.3 5.97M228.11 341.97c-7.04-2.99-12.87-5.58-13.63-6.07.31.14.62.29.93.43 2.77 1.3 7.77 3.52 12.7 5.64m240.25 100.97c.73-1.48 1.83-3.47 2.93-5.25.26-.42.49-.83.71-1.22-.39.77-.78 1.48-1.17 2.12-.81 1.33-1.73 2.96-2.47 4.35m-213.01-247.3c1.51-.56 3.14-1.15 4.65-1.67.23-.08.46-.16.69-.25-2.55.98-4.23 1.6-4.69 1.72-.2.06-.42.12-.65.2M84.49 169.92c5.21-2.55 10.56-4.59 15.79-5.99-5.2 1.41-10.6 3.49-15.79 5.99m255.55 284.07c-2.03-2.44-3.97-5.1-5.86-8.05 1.84 2.81 3.85 5.59 5.86 8.05M293 369.3c-17.29-7.3-33.35-14.06-47.04-19.82 9.5 3.99 22.92 9.64 47.04 19.82m177.21-201.68c.57-1.01 1.12-1.96 1.58-2.74q-.48.93-.96 1.71c-.2.32-.41.67-.62 1.03m-81.18 311.91c-3.13-.3-5.81-.93-10.03-2.07 4.15 1.12 6.87 1.75 10.03 2.07m80-394.46c-.04-.04-.08-.07-.12-.1-.38-.25-.96-1.15-1.4-2.14.44.99 1.02 1.89 1.41 2.14.03.02.07.06.11.1M184.86 334.54c-.12.08-.24.17-.36.26-.21.16-.43.32-.65.48.34-.26.68-.5 1.01-.74M111 161.88"/>
  <path fill="#BBDBFD" d="M388.98 446.96C367.82 441.94 352 421.84 352 400c0-26.33 22.05-48 48.84-48 18.84 0 37.17 12.26 43.85 29.33 2.5 6.39 2.81 8.42 2.8 18.67-.01 9.53-.4 12.5-2.28 17.36-7.35 19.03-24.73 30.81-45.07 30.54-4.2-.06-9.22-.48-11.16-.94m1.52-271.56c-25.57-6.26-41.43-29.08-37.75-54.34 1.56-10.73 5.78-18.81 14.13-27.1 7.96-7.89 15.4-11.64 26.19-13.21 22.93-3.34 43.91 8.69 52.15 29.89 1.9 4.88 2.28 7.78 2.28 17.36 0 10.34-.29 12.25-2.93 18.99-2.46 6.29-4.14 8.7-10.5 15.06-10.02 10.01-16.98 12.99-31.57 13.49-5.5.19-10.9.13-12-.14M41.19 214.7c-2.32 5.26-4.27 10.48-5.21 14.3-1.49 6.05-2.45 12.51-2.88 19.09-.34 5.25-.34 10.57 0 15.82.43 6.58 1.39 13.04 2.88 19.09.94 3.82 2.89 9.04 5.21 14.3-2.22-4.82-4.17-10.02-5.22-14.3-1.49-6.07-2.45-12.52-2.87-19.09-.34-5.25-.34-10.57 0-15.82.42-6.57 1.38-13.02 2.87-19.09 1.05-4.28 3-9.48 5.22-14.3"/>
  <path fill="#FEFEFE" d="M0 256V0h512v512H0zm423.62 221.22c12.53-3.44 22.45-8.82 30.38-16.48 6.36-6.14 12.12-12.9 13.28-15.59.63-1.46 2.23-4.41 3.55-6.56 3.28-5.35 6.76-15.92 8.22-25.03 1.51-9.36.71-27.72-1.58-36.06-1.97-7.18-7.16-19.34-9.09-21.26-.76-.76-1.38-1.85-1.38-2.41 0-2.01-13.26-15.81-18.59-19.34-15.87-10.54-26.9-13.72-47.91-13.82-25.52-.11-40.76 5.76-57.36 22.1-10.35 10.21-9.53 9.96-18.64 5.68-2.75-1.3-8.15-3.56-12-5.03s-10.72-4.42-15.27-6.55-8.73-3.87-9.3-3.87-2.93-.86-5.23-1.9c-14.89-6.76-26.37-11.69-34.2-14.68-4.95-1.9-10.35-4.08-12-4.86-9.74-4.61-16.83-7.56-18.14-7.56-4.32 0-4.86-4.28-1.39-11 4.1-7.95 7.03-23.92 7.03-38.32 0-10.47-2.11-22.39-5.92-33.43-1.65-4.8-2.68-9-2.29-9.34s6.11-2.74 12.71-5.35c12.19-4.8 16.62-6.63 22-9.07 1.65-.74 4.12-1.67 5.5-2.05s13.75-5.19 27.5-10.69c13.75-5.51 28.6-11.35 33-13s8.43-3.39 8.95-3.87c2.17-2.01 4.52-.66 7.58 4.37 7.89 12.92 23.08 25.85 35.47 30.17 13.43 4.69 15.83 5.08 31.5 5.08 12.29 0 16.74-.38 21.5-1.86 3.3-1.02 8.09-2.51 10.64-3.29 5.97-1.85 15.55-7.73 21.05-12.91 6.8-6.41 12.84-13.4 14.09-16.29.63-1.46 2.23-4.41 3.55-6.56 3.28-5.35 6.76-15.92 8.22-25.03 1.51-9.36.71-27.72-1.58-36.06-1.81-6.6-7.26-19.69-8.55-20.53-.45-.29-1.18-1.49-1.62-2.66-1.38-3.67-13.07-15.96-18.81-19.77-7.51-4.99-16.33-9.54-18.47-9.54-.98 0-3.31-.64-5.19-1.43-1.88-.78-8.12-1.95-13.87-2.58-28.18-3.13-51.52 4.53-69.12 22.67-13.98 14.42-20.59 30.64-21.75 53.34l-.59 11.5-28 11.22c-15.4 6.17-29.35 11.66-31 12.2-7.65 2.49-14.38 4.98-16.1 5.94-2.32 1.3-14.18 6.18-33.28 13.69-16.41 6.45-15.25 6.52-25.49-1.52-3.52-2.77-6.66-5.03-6.98-5.03-.31 0-3.85-1.55-7.86-3.44-13.21-6.23-17.8-7.61-28.66-8.64-10.9-1.03-28.18-.03-38.63 2.23-19.38 4.2-40.96 17.93-52.43 33.35-5.18 6.97-12.88 23.56-15.09 32.5-4.18 16.94-4.18 37.06 0 54 2.21 8.95 9.91 25.53 15.1 32.5 6.2 8.33 17.46 18.27 26.92 23.77 6.43 3.73 18.28 8.3 27 10.41 10.59 2.57 38.7 2.59 48 .04 11.18-3.07 23.19-8.75 31.5-14.92 6.57-4.87 8.54-5.86 11-5.48 3.42.52 17.32 5.33 18.93 6.55.59.44 7.82 3.64 16.07 7.11 16.3 6.84 38.18 16.06 62.5 26.32 8.52 3.6 17.98 7.51 21 8.69s5.99 2.68 6.6 3.33c.77.83.84 4.17.23 11.18-1.44 16.6.69 29.52 6.94 42 7.4 14.8 14.58 23.79 24.81 31.09 7.97 5.69 14.68 8.7 26.42 11.87 8.61 2.33 10.82 2.53 23.5 2.14 9.63-.3 16.22-1.04 21.12-2.38M109.5 317.49c-3.3-1.28-7.57-2.92-9.5-3.63-5.57-2.07-12.43-7.42-19.87-15.5-6.12-6.63-7.36-8.7-10.95-18.17-6.78-17.91-6.67-31.13.43-49.69 3.68-9.62 4.19-10.36 13.36-19.5 9.1-9.07 9.98-9.68 19.53-13.38 17.62-6.85 33.66-7.06 50.24-.66 18.5 7.13 31.43 21.8 37.84 42.95 1.85 6.09 1.85 26.09 0 32.18-3.93 12.96-8.75 21.15-17.48 29.67-6.78 6.63-11.84 10.13-19.01 13.15-10.29 4.34-14.19 5.07-26.59 4.99-10.04-.07-12.98-.47-18-2.41"/>
</svg>
