<svg xmlns="http://www.w3.org/2000/svg" fill="none" viewBox="0 0 24 18">
  <path fill="#1C2F9E" d="M21 0H3a3 3 0 0 0-3 3v12a3 3 0 0 0 3 3h18a3 3 0 0 0 3-3V3a3 3 0 0 0-3-3"/>
  <path fill="#fff" d="M12.232 8.189c-.008.626.541.976.955 1.184.424.214.567.35.566.541-.004.292-.34.421-.654.426-.548.01-.866-.152-1.12-.275l-.197.954c.254.12.725.226 1.213.231 1.145 0 1.895-.584 1.899-1.489.005-1.148-1.54-1.212-1.529-1.726.004-.155.148-.321.463-.364a2 2 0 0 1 1.076.195l.191-.923a2.8 2.8 0 0 0-1.02-.193c-1.079 0-1.837.592-1.843 1.439m4.706-1.36a.5.5 0 0 0-.464.32l-1.637 4.033h1.145l.228-.65h1.399l.132.65h1.009l-.88-4.352h-.932zm.16 1.176.33 1.635h-.904zM10.844 6.83l-.903 4.352h1.091l.902-4.352zm-1.614 0L8.095 9.792l-.46-2.519c-.054-.281-.266-.443-.503-.443H5.276l-.026.126c.381.085.814.223 1.076.37.16.09.207.169.26.383l.87 3.473h1.152l1.768-4.352z"/>
</svg>
